<?xml version="1.0" encoding="UTF-8"?>
<svg id="Layer_1" data-name="Layer 1" xmlns="http://www.w3.org/2000/svg" viewBox="0 0 1022.36 365.62">
  <defs>
    <style>
      .cls-1 {
        fill: #fbb040;
      }
    </style>
  </defs>
  <path class="cls-1" d="M11.3,343.66c-9.5,0-11.98-3.3-11.15-12.39l1.65-13.22c1.65-11.98,2.89-23.96,4.54-36.35,2.48-21.89,4.54-44.2,9.09-66.5l1.65-9.5c.41-9.91,1.65-19.83,3.3-29.74l2.07-14.46,1.24-6.61c.41-2.89.83-5.37.83-7.44.41-2.89,0-4.96.41-7.85l1.65-10.74c1.24-9.5,2.48-18.59,3.31-28.09.41-2.07.41-3.31.41-3.72-.83-5.37,0-10.74,2.06-17.76.41-1.65.41-3.3.41-7.43v-2.89l.41-3.72c0-2.89.41-5.37.83-7.02,2.06-9.91,2.89-19.83,4.13-30.15l1.24-12.39c.41-1.65.41-4.13,1.65-6.61,1.24-4.54,4.96-7.44,9.09-8.26,1.65-.41,4.13-.41,7.02-.41,11.57.41,23.96.41,35.52.41l5.37.41c7.85.41,11.57,4.13,11.15,11.56v.83c7.43.83,11.15,4.13,10.74,11.56l-.83,7.85c-.41,3.72-1.24,7.44-1.65,11.15-1.24,6.19-2.48,11.57-2.48,17.35,0,7.85-1.24,16.11-2.48,23.54l-1.65,10.74-.41,9.09c-.41,6.61-1.24,13.63-2.89,20.24l-.41,2.48v11.98l4.54.41c4.96.42,9.91.42,15.28,0l9.5-.41c-.41,0-1.24-.41-.83-2.07l.83-9.09c.83-8.26,2.07-16.52,2.07-24.78,0-3.31.83-6.61,1.24-9.5l.41-4.13,1.24-10.74c.83-7.02,1.65-14.87,4.13-22.72,1.24-3.72,1.65-8.26,1.24-14.04,0-5.78.83-11.57,1.65-16.94l.83-9.5c0-.83.83-3.72,1.65-5.78l.83-1.24c1.24-3.72,4.54-6.61,9.09-7.44l4.13-.41h.41c10.33.83,22.3.83,33.87.41h13.22c7.43,0,10.33,3.3,9.5,10.33v2.07h1.65c7.02,0,10.33,3.3,9.5,10.33l-3.72,27.67c-1.65,14.87-3.72,29.33-5.78,43.78l-3.3,22.3c-.83,2.89-.83,5.78-1.24,9.09l-1.65,9.91c0,6.61-1.24,14.87-3.3,23.96-.83,4.13-1.65,7.85-1.65,11.15v5.78l-.41,2.07-1.65,14.87c-1.24,9.91-2.06,20.24-3.72,30.57-2.06,14.87-4.13,29.74-4.13,44.61.41,3.72-.83,7.43-1.24,10.74-.83,1.65-1.24,3.3-1.24,4.96-1.65,9.5-2.48,19-3.3,28.91l-2.48,19.83-.41,4.13c-1.65,14.04-4.96,17.35-17.76,17.35h-5.78c-3.72,0-6.61-.41-9.5,0-10.74,1.24-19.83,1.24-30.15,0-5.37-.83-8.67-4.96-8.67-10.74l.41-1.24-2.48-.42c-5.78-.83-8.67-4.95-8.67-10.74v-3.3l.41-3.72,1.24-11.57c1.65-11.98,2.89-24.37,4.96-36.35,2.07-10.74,3.31-21.07,4.54-31.8.83-8.26,1.65-16.11,2.89-24.37l.41-6.19-3.72-.41c-7.85-.41-14.87-.83-24.78.41l-1.65,9.09c-.41,4.54-1.24,9.09-1.65,13.63-2.07,15.28-4.54,38-5.37,49.15l-.83,7.44c-2.06,11.15-3.3,20.65-4.13,30.57l-1.65,13.22-.83,4.13-.41,3.72c-1.24,5.37-7.44,9.91-12.39,9.09-5.37-.83-11.15-.41-17.35-.41-4.54.41-9.09.41-14.04.41-2.89-.41-5.37,0-8.67,0l-6.19.41c-9.09,0-11.98-3.3-10.74-12.39ZM27.41,337.05c10.74.41,21.48-1.24,31.8,0,1.65.41,3.72-1.65,4.54-3.3,0-2.48.83-4.96,1.24-7.44,2.07-15.7,2.89-29.74,6.2-47.5.41-9.5,3.72-35.52,5.78-52.87.41-7.85,2.07-15.28,2.89-22.72.83-4.96,1.65-5.78,6.2-6.19,16.11-1.65,25.2,0,38,0,2.06,0,4.54,0,6.61.41,1.24.41,2.48,1.24,2.48,2.89-.83,7.44-.83,14.46-1.65,21.48-2.89,19-4.13,37.59-7.43,56.59-2.89,15.7-4.13,31.8-6.2,47.5-.41,2.06,0,4.13-.41,6.61,0,2.89,1.24,4.54,4.13,4.96,9.5,1.24,18.17,1.24,28.5,0,4.96-.41,10.33,0,16.11,0,8.67,0,9.5-.41,10.74-11.15l.41-4.13c2.07-16.52,3.31-32.63,5.78-48.74.41-4.96,2.89-9.91,2.48-14.87,0-15.28,2.07-30.56,4.13-45.44,2.06-15.28,3.72-30.57,5.37-45.44l.41-3.3c-.41-5.37.41-10.74,1.65-16.11,1.65-7.85,3.31-16.11,3.31-23.54,1.24-6.61,1.65-13.22,2.89-19.42,2.89-21.89,6.61-43.78,9.09-65.68l3.3-27.67c.41-3.3,0-4.13-3.72-4.13-15.28,0-33.04.83-47.91-.41-.83,0-2.06.41-3.3.41-1.65.42-2.89,1.24-3.31,2.89-.83,1.65-1.65,3.31-2.06,4.96-.41,8.68-2.48,17.35-2.48,26.02.41,5.37,0,10.74-1.24,16.11-3.72,10.74-3.72,21.48-5.37,32.22-.41,4.54-1.24,8.68-1.65,13.22,0,12.39-2.06,25.2-3.3,37.59-.41,3.72-1.65,4.96-4.96,4.96-8.67,0-17.76,1.24-26.44.41-3.72-.41-8.26-.41-12.8.83-1.65.83-3.72.41-5.37.41-2.48,0-4.13-1.24-3.72-3.72,1.24-9.5,2.48-18.59,2.06-28.09v-3.3c2.89-9.5,2.48-19.41,3.72-28.91,1.24-11.15,4.13-22.3,4.13-33.46,0-9.91,2.89-19.41,4.13-29.33l.83-7.44c0-4.13-1.24-5.37-5.78-5.78-1.65,0-3.31-.41-5.37-.41-11.56,0-23.96,0-35.52-.41-2.07,0-3.72,0-5.37.41-2.06.41-3.72,1.65-4.13,3.3-.83,2.07-.83,3.72-1.24,5.37-1.65,14.46-2.48,28.91-5.78,43.37-.83,2.89-.41,6.19-.83,9.5,0,4.13.41,8.26-.83,11.98-1.65,4.96-2.48,9.91-1.65,14.87,0,1.65-.41,3.72-.41,5.37-.83,14.04-3.3,28.09-5.37,42.13.83,6.2-1.24,12.39-2.06,18.59-2.07,14.87-4.96,29.33-5.37,44.19l-1.65,9.91c-6.61,33.87-8.67,68.15-13.63,102.44l-1.65,13.22c-.41,5.78.41,6.19,5.78,6.19,4.96,0,9.91-.83,15.28-.41Z"/>
  <path class="cls-1" d="M276.07,354.4c-10.74-3.3-19.83-9.91-27.26-19.41l-3.31-3.72-2.07-2.48c-1.65-1.65-3.72-3.72-5.37-6.2l-3.3-3.72c-2.89-2.89-5.78-6.19-7.85-11.15-3.72-7.85-4.96-14.87-6.2-22.31-2.06-9.91-2.48-21.48-.41-36.35.83-11.98,2.48-23.96,4.13-35.52l2.48-17.76c.41-5.78,1.24-10.74,1.65-16.52.41-12.39,1.24-21.89,3.72-30.15,2.89-18.59,5.37-37.17,7.44-55.76l1.24-9.09c1.24-7.44,2.06-14.87,2.06-21.89l.41-3.72.41-1.24.41-2.07.83-2.48c0-6.19.83-12.39,1.65-17.76.83-3.72,1.24-7.44,1.65-11.57l1.24-11.98c.83-5.78,5.78-9.91,11.57-9.5,7.44-.83,15.7-1.65,23.96,0,4.54.83,9.5.83,14.46.83,2.89,0,4.54.41,7.44.41h1.24c2.48,0,4.96,0,7.02,1.24,2.06,1.65,3.3,3.72,3.3,6.61l-.41,4.54h.83c2.48,0,4.96,0,7.02,1.24,2.07,1.65,3.31,3.72,3.31,6.61-.41,6.2-.83,12.81-1.65,19.42l-3.3,19-2.89,26.02c-.83,5.78-1.65,11.15-1.24,15.7,0,1.65-.41,3.72-.41,5.37l-.41,1.24-1.24,9.91-2.48,19c-.41,6.19-1.24,12.81-2.06,19l-1.24,9.91-.83,3.3c1.24,14.05-2.48,28.09-4.96,40.89l-.41,1.65v.42c.41,9.91-1.24,20.24-2.89,29.74l-1.65,11.98c-.41,3.72-.83,6.61-.83,9.5.41,4.13-.41,8.26-.83,11.98,0,1.65,0,3.31.41,4.96,1.24.83,2.89,1.24,4.96,1.24,3.72.83,9.09-.41,12.81-2.48l1.65-1.65.41-.83,2.06-5.37,2.48-9.91c2.48-9.09,4.54-16.93,3.72-24.78-.41-3.31.41-7.02.83-9.91l.41-2.89c1.65-6.61,2.89-13.22,4.13-20.24l1.24-10.74c.83-3.72,1.24-7.44,1.65-11.15l1.24-8.26,1.24-7.85c1.24-8.67,1.24-16.94,1.65-25.61v-2.89l.41-4.13.83-5.78,7.44-59.89c2.06-10.74,3.3-21.48,4.54-32.63.83-4.96,1.65-9.09,1.24-13.63,0-1.65,0-4.96.41-7.44l.41-2.06c.83-5.78,4.54-9.5,10.74-10.33l2.89-.41c5.78-.83,12.39-1.65,18.59-.83l10.33.41c6.2.42,11.98.42,17.35,0,5.78,0,7.85,1.65,8.67,7.02,0,0,.41,2.89,0,5.37h2.48c5.37,0,7.43,1.65,8.67,7.02,0,0,.41,2.89,0,5.37l-.41,2.89c-.83,4.13-1.24,7.44-1.24,10.74,0,2.89,0,4.54-.41,5.37l-.41,1.65c-.83,2.48-1.65,3.72-1.65,5.78l-2.89,25.19c-1.24,12.81-2.48,25.2-4.54,38l-2.06,11.56c-1.65,7.85-2.89,14.87-3.31,22.72-.41,11.15-1.65,22.72-2.89,34.28l-1.24,13.63c-1.24,7.02-2.89,14.46-3.72,21.48l-1.24,10.74-.41,4.13c0,2.48,0,6.2-1.24,9.91-1.24,2.48-1.65,7.44-1.65,11.15-.41,5.78-1.24,10.74-2.48,15.7l-2.48,12.39c-2.48,13.22-8.67,25.61-19.83,41.72-4.54,5.78-9.09,9.09-13.22,12.81l-5.37,4.54c-11.98,10.33-26.85,16.52-41.72,16.52-19.41.83-29.33-.41-45.44-5.78ZM348.77,326.73c6.2-5.78,11.57-9.09,17.35-16.11,8.67-12.81,15.7-24.78,18.59-38.83,2.07-12.39,5.78-24.37,5.78-36.76-.41-.83,0-1.65.41-2.06,2.07-4.54,1.24-9.09,2.07-14.05l1.24-10.74c.83-7.02,2.06-14.46,3.3-21.48,1.65-16.11,4.13-31.8,4.54-47.5.41-11.98,3.72-23.54,5.37-35.11,2.89-20.65,4.54-41.72,7.43-62.78.41-3.3,1.24-5.78,2.48-9.09-.83-6.61.83-12.81,1.65-19.42-.83-3.72-.41-4.13-3.3-4.13-9.09.83-19.41-.41-28.5-.41-6.19-.83-13.63.41-20.24,1.24-2.89.41-4.13,1.65-4.54,4.13-.41,2.89-1.24,5.78-.83,8.26.41,5.37-.41,10.33-1.24,15.28-1.24,10.74-2.89,21.48-4.54,32.63l-4.13,33.04c-.41,11.15-2.06,21.89-4.13,32.63-.41,2.06-.41,4.13-.41,6.19-.41,8.67-.41,17.35-1.65,26.02l-2.48,16.11c-1.24,7.44-1.65,14.87-2.89,22.3-1.24,7.02-2.48,13.63-4.13,20.24-.83,3.72-1.65,7.44-1.24,11.15,1.24,11.98-3.72,24.37-6.61,36.35,0,2.89-1.65,5.78-2.89,8.26-.83,1.65-2.89,3.3-4.13,4.13-4.96,2.89-12.39,4.54-17.35,3.72-13.22-1.65-21.89-10.74-20.65-24.78.41-3.72.83-7.44.41-10.74,0-3.72.41-7.02.83-10.74,1.65-13.22,4.96-26.85,4.54-40.07,0-1.24.41-2.89.83-4.13,2.89-13.22,6.19-26.85,4.54-40.07l1.24-4.13c1.24-9.5,2.48-19,3.3-28.09.83-9.91,2.48-19.42,3.72-29.33,0-1.65.83-3.3.41-5.37,0-5.37.83-11.15,1.24-16.93l3.31-26.02,3.3-19.41c.83-6.2,1.24-12.39,1.24-18.59.41-.83-.41-1.65-1.65-2.07-2.89,0-5.37,0-8.26-.41-6.61,0-12.81,0-19-.83-7.43-1.65-14.87-.83-22.72,0-2.48-.42-4.13.83-4.54,3.3l-1.24,11.98c-.83,9.91-3.31,19-3.31,28.91,0,1.65-.83,3.31-1.24,5.37-.41,1.24-.83,2.89-.83,4.13,0,10.33-2.07,21.07-3.31,31.39-2.06,18.59-4.54,37.59-7.85,56.17-2.06,9.5-2.89,19.41-3.3,29.33-.41,5.78-1.24,11.15-1.65,16.93-2.48,17.76-5.37,35.52-6.61,53.29-1.24,11.15-2.07,23.13.41,34.28,1.24,7.85,2.07,14.04,5.37,21.07,3.31,6.19,7.02,9.09,10.74,14.04,6.61,8.26,14.46,14.46,24.78,17.76,16.11,5.37,25.61,6.19,43.37,5.37,13.63,0,26.85-5.37,37.59-14.87Z"/>
  <path class="cls-1" d="M609.41,271.79c-1.24,8.26-2.89,16.52-5.37,24.78-3.31,10.74-10.33,23.54-17.35,30.56-10.74,11.98-19.41,17.76-37.59,25.2-3.3,1.24-11.15,2.48-16.11,2.48-5.37-.42-10.33,0-14.87,1.24-1.65,0-3.31.41-4.96.41-2.48,0-4.54-.41-7.02-.83-10.33-1.65-21.07-.83-32.22,0h-.83s-3.72.41-6.2,0c-10.33-1.65-20.24-1.24-30.98-1.24-1.65,0-3.31-.41-4.54-.83-3.72-1.24-5.78-4.13-5.78-8.26v-3.3h-.83c-1.24,0-2.89-.41-4.13-.83-3.72-1.24-6.2-4.13-5.78-8.26,0-2.89,0-5.78.41-9.09l1.24-11.98c.83-9.5,1.65-19.83,4.13-29.74,1.24-5.78,2.07-12.39,2.07-21.48.41-4.54.83-9.5,2.06-14.87,2.89-14.87,4.96-29.74,5.37-44.19.41-7.44,1.65-15.28,2.48-22.31,1.65-9.5,2.89-17.76,2.48-26.44l.41-1.24,1.65-17.35c2.07-20.24,4.13-40.48,7.85-61.13,1.24-5.37,2.07-11.56,2.48-17.76l2.48-24.37,1.65-13.22c0-2.89.41-4.54.83-6.19l.83-2.07c1.65-3.72,3.72-5.78,7.43-7.02,2.48-.83,4.54-.83,7.44-.83,11.15.41,20.24,0,30.15,0,13.63-.83,29.33-1.24,55.35,0,8.67.41,17.35,2.07,26.44,4.96,2.89.83,5.78,2.48,8.26,4.54l4.13,3.72c5.37,4.96,11.15,10.33,15.7,16.93l.83.83c3.31,3.3,7.02,7.02,10.33,11.56,6.2,9.5,9.5,20.24,8.67,31.8-.83,20.65-4.96,41.31-12.39,60.72-2.89,7.44-6.2,13.63-10.33,18.17l-.83.83-2.06,2.48c-2.89,5.78-7.44,10.33-13.22,14.05l2.06,3.3c5.78,4.13,9.91,9.91,13.63,17.76.83,3.3,2.07,6.19,3.31,9.5l2.89,7.44c1.65,6.19,1.65,12.39,1.65,17.76v2.89c0,4.13-.41,7.85-.83,11.56-.83,4.54-1.24,9.09-.83,13.22,0,4.96-.41,10.33-1.65,16.11ZM595.78,219.33c0-6.61,0-12.8-1.65-19-1.65-5.37-4.13-10.74-6.19-16.52-2.89-6.61-6.61-12.39-13.22-16.52-2.07-1.24-4.54-2.48-7.02-4.13-.41-.83-.41-2.07.41-2.89,2.06-1.65,4.13-3.3,6.61-4.96,4.96-2.89,9.09-7.02,11.56-11.98,1.24-1.65,2.48-3.31,3.72-4.54,4.13-4.54,7.02-10.33,8.67-15.7,7.43-19.41,11.56-39.24,12.39-59.07.41-10.74-2.48-20.24-8.26-28.5-4.96-7.44-12.39-13.22-19-19.41-1.65-1.65-4.13-2.89-6.61-3.72-7.85-2.48-16.11-4.13-24.37-4.54-46.26-2.06-59.48,1.24-88.81,0-3.31.42-4.54,1.24-5.37,4.54l-.41,2.07c-1.24,13.63-3.72,27.26-4.54,40.89-.41,6.2-1.24,12.39-2.48,18.17-4.96,26.02-6.61,52.05-9.5,78.07v.83c0,16.11-4.54,32.63-5.37,48.74-.41,14.87-2.48,30.15-5.37,45.02-1.24,4.95-1.65,9.5-1.65,14.04-.41,7.44-.83,15.28-2.48,22.72-3.31,13.63-3.72,27.26-5.37,40.89-.41,2.89-.41,5.78-.41,8.67,0,1.65.83,2.48,2.48,2.89.41.41,1.24.41,2.07.41,11.98,0,23.13-.41,35.11,1.65.83,0,2.07-.41,3.31-.41,11.98-.83,24.37-1.65,35.94.83,2.07,0,4.13,0,7.02-.41,4.96-1.24,10.33-1.65,16.11-1.24,3.3,0,10.33-.83,13.63-2.07,14.87-6.2,23.54-10.74,34.7-23.13,7.02-7.02,13.22-19.41,16.11-28.09,2.07-7.85,3.31-15.69,4.96-23.96.83-4.95,1.65-9.91,1.24-14.87,0-4.54.41-9.5.83-14.05.83-3.72,1.24-7.02,1.24-10.74ZM538.78,208.18c1.65,4.13,2.07,8.67,1.24,13.63-.83,6.2-1.24,12.39-2.06,18.59,0,2.48-.83,4.96-.83,7.44.83,4.96-1.24,9.91-1.65,14.87-1.65,7.02-6.2,11.98-10.74,17.35-2.48,2.48-5.37,3.72-9.09,4.54-6.2,2.07-12.81,3.3-18.17,2.48h-6.2c-7.43,0-7.43-.41-7.43-7.02,0-5.78.41-11.15,2.06-17.35,1.24-5.37,1.65-11.15,2.48-16.94,2.07-16.11,5.37-32.63,5.78-48.74,0-3.3.83-3.72,4.13-4.54,8.67-2.07,17.35-1.65,26.02,0,8.26,2.07,11.98,8.26,14.46,15.7ZM532.99,211.07c-8.67-1.65-16.11-1.65-23.13,0,0,0,1.24,5.78.41,11.98l-2.48,19-2.48,16.11-.41,4.13c-.41,4.54-.83,9.09-2.07,13.63l-1.24,5.37h.41c3.3,0,7.43-.83,12.8-2.48,2.89-.83,4.54-1.65,5.37-2.48,5.78-6.61,7.85-9.91,9.09-14.04l.83-4.96c.83-4.54,1.24-6.2.83-8.26,0-2.07,0-3.72.83-6.61v-2.07l1.24-9.09.83-9.91c.83-3.3.41-6.61-.83-10.33ZM552.82,85.5l-1.65,18.59c-.83,7.85-5.37,15.28-9.91,22.3-1.65,2.48-4.54,3.72-7.43,4.96-7.02,2.07-13.63,2.48-20.65,2.48-9.91-.41-9.91-.83-8.67-10.74.83-6.61.83-10.33,1.65-16.93-.41,0,.41-2.89,0-3.72,1.24-7.02,2.48-14.04,3.3-21.48.41-5.78-.83-11.15.83-16.93l.41-3.31c.41-1.65,2.07-2.48,3.72-2.89,1.24,0,2.89-.41,4.13,0,3.31.83,7.44.83,11.57.41,5.78,0,10.33,1.65,14.04,5.37,6.2,5.78,10.33,12.39,8.67,21.89ZM546.62,78.07c-2.06-.83-3.72-1.24-6.19-1.24-4.54.42-9.09.42-13.22-.41v.41c-.83,3.31-.83,5.78-.83,9.91v6.2l-1.65,11.56-1.24,10.33v2.07l-5.78-4.54,2.89,2.89c2.06,2.48,2.48,4.54,2.48,7.44l-.41,4.13v.42c3.31-.42,6.61-.83,9.5-1.65,2.89-1.24,3.72-1.65,4.13-2.48,5.37-8.26,7.85-13.63,8.67-19l2.07-19c.41-2.48,0-4.96-.41-7.02ZM821.72,71.05v7.44c0,5.37,0,10.74-.41,16.11-.83,14.87-4.54,29.74-11.57,45.85-2.07,4.95-4.54,9.5-9.09,16.11-4.96,7.43-11.15,13.63-17.76,17.76,3.3,2.48,5.78,5.78,7.02,9.5l1.24.83c7.02,4.13,9.91,10.74,11.98,16.94.83,2.89.83,4.13,1.24,6.19l.83,2.48c2.89,8.26,3.31,16.93,1.65,25.19-1.24,6.2-1.24,12.39-1.24,19,0,11.56-1.65,23.54-5.37,38.41-3.72,12.39-10.33,24.78-16.94,32.22-11.98,13.22-21.07,19.83-35.11,25.61-6.61,2.48-17.76,4.54-26.02,4.54-2.07,0-4.13.41-7.02.83l-3.72.41c-2.89.41-6.61.83-9.91.41h-14.04c-14.87.42-30.15.42-44.61-.83-2.89-.41-5.37,0-8.67,0h-4.96c-5.78,0-9.09-3.72-9.09-9.91l.41-2.48h-2.06c-5.78,0-9.09-3.72-9.09-9.91l.41-3.72c1.65-15.28,4.13-30.98,6.61-46.26l2.89-27.26c2.89-22.72,6.2-45.85,9.09-68.98.41-4.13.83-9.09.83-13.63,0-4.13.83-8.26,1.24-12.39l6.2-52.05c.83-4.54.83-8.67.83-13.63l4.13-23.96c.83-8.26,2.06-15.7,2.89-23.54.83-7.85,2.06-15.7,3.3-23.54.41-3.72.83-7.85,1.65-12.39.83-4.96,5.37-8.67,10.32-9.91l5.78-.41c2.48,0,4.96,0,8.26-.41,4.54-.41,9.91-1.24,16.11.41,5.78-1.65,11.98-1.65,17.35-.41,7.02,1.24,14.46.83,22.72.41,7.02-.41,14.46-.83,21.89,0,11.98,1.65,21.07,4.13,28.91,8.26,8.68,4.13,15.7,10.33,20.65,18.59,10.33,8.26,16.52,20.24,19.83,36.35.41,1.65.41,4.13.41,5.78ZM804.37,59.07c.41-1.24,0-2.89,0-4.13-3.3-17.35-10.74-30.98-26.85-39.24-8.26-4.13-17.35-6.19-27.26-7.43-14.46-1.65-30.15,2.06-44.61-.42-4.96-1.24-10.33-1.24-15.7.42h-2.07c-7.85-2.48-15.28.41-23.54,0-1.24,0-2.89,0-4.13.41-2.07.41-4.13,2.06-4.54,4.13-.83,4.13-1.24,8.26-1.65,11.98-2.48,16.11-4.13,30.98-6.19,47.09-1.65,7.85-2.48,16.11-4.13,23.96,0,4.54,0,9.09-.83,13.63l-6.19,52.05-1.24,11.98c0,4.54-.41,9.5-.83,14.04-2.89,23.13-6.19,46.26-9.09,68.98l-2.89,27.26c-2.48,15.28-4.96,30.98-6.61,46.26l-.41,3.31c0,2.89,1.24,4.13,3.72,4.13,4.96,0,9.5-.41,14.04,0,19,1.65,38.83.83,58.24.83,2.89.42,5.78,0,8.68-.41,4.13-.41,8.26-1.24,11.98-1.24,6.61,0,16.94-1.65,23.13-4.13,13.63-5.37,21.48-11.56,32.63-23.54,6.61-7.44,12.39-19.83,15.28-29.33,2.89-11.98,5.37-24.37,5.37-36.76,0-6.61,0-13.63,1.24-20.24,1.65-7.85.83-15.28-1.65-22.31-.41-1.65-1.24-3.72-1.24-5.78-2.07-7.02-4.13-13.63-11.15-16.93-.41,0-.83-.83-1.24-1.24-2.89-4.54-7.85-7.02-13.22-9.91-.83-.41-2.07-1.65-2.89-2.48-.41-.41,0-1.65,0-1.65,2.07-1.65,4.13-2.89,7.02-3.72,7.85-3.72,14.46-9.91,19.42-17.35,2.89-4.54,6.19-9.5,7.85-14.87,6.19-14.04,10.74-28.5,11.15-43.78.83-7.85.41-15.7.41-23.54ZM736.63,218.09l-2.48,22.3-2.89,18.59c-.42,2.89-1.24,5.78-2.07,8.26-2.07,11.56-10.33,17.35-20.65,20.24-8.67,2.07-17.76,2.48-26.85,1.24-3.72-.83-4.96-2.48-4.54-5.78.83-13.63,3.3-27.26,4.96-40.89,1.24-11.56,4.13-23.13,5.37-34.28l1.65-14.04c.41-2.07,1.65-2.89,3.3-2.89,7.44,0,14.87-.42,22.3,0,13.22,1.24,23.13,14.04,21.89,27.26ZM729.61,210.66c-1.65-.41-3.3-1.24-5.37-1.24-4.54-.42-9.09,0-14.04,0h-7.44s3.3,0,2.89,3.72l-1.24,7.02c-.41,5.78-1.65,11.56-2.48,17.35-1.24,5.78-2.06,11.15-2.89,16.94l-1.65,13.63-2.07,15.28c4.13-.42,8.26-.83,12.39-2.07,9.5-2.48,14.04-7.02,15.7-14.87.83-3.3,1.24-5.78,1.65-7.85l2.89-18.17,2.48-22.3c.41-2.48,0-4.96-.83-7.44ZM749.43,76.83c1.65,10.74,1.24,21.89-2.06,33.05-2.07,7.02-6.2,12.81-11.98,17.76-2.07,1.65-4.54,2.89-7.02,3.3-7.85,1.24-18.17,2.89-26.02,2.07-3.31-.41-4.54-1.65-4.13-4.54,1.24-11.56,1.65-23.54,2.48-35.52.83-9.91,4.96-19.83,4.54-29.74.41-1.65.41-3.72,1.24-5.37,0-1.65,1.24-2.48,3.3-2.89,2.48,0,9.5,0,9.5-.41,3.72.41,7.44,0,10.33.83,10.74,3.31,17.76,9.91,19.83,21.48ZM743.24,78.48l-.83-3.3-4.13-1.65h-4.96l-3.72-.41c-2.48.41-4.96.41-7.02.41v1.65c0,6.19-1.24,12.81-2.48,18.17-1.24,4.13-2.07,7.85-2.07,11.56l-1.24,14.46-.41,7.02,11.56-1.65c1.65,0,2.89-.83,3.72-1.65,4.96-4.13,8.26-8.67,9.91-14.04,2.48-9.91,3.31-20.24,1.65-30.57Z"/>
  <path class="cls-1" d="M964.48,361.42c-8.26-3.3-14.04-8.26-16.93-15.7-5.37-2.89-9.09-7.44-11.15-12.81-4.13-9.91-5.78-16.52-6.19-23.96,0-3.72-.41-7.85-.83-11.56l-5.78-.41-23.13-.41h-5.37l-3.3,9.5c-1.24,3.3-2.48,7.02-3.31,10.33l-2.06,6.61c-2.48,7.43-4.96,16.52-7.44,23.54-1.24,4.54-4.96,7.85-9.91,8.67,0,0-3.72.41-6.61,0-7.85-.41-14.46,0-20.65.41-6.2.41-12.39.41-19.41,0h-4.96c-5.78-.83-9.09-6.61-7.02-11.56l.41-.83h-4.54c-5.37-.83-8.67-6.61-6.61-11.56l11.98-35.11c5.78-17.76,11.57-35.52,16.94-55.76,1.65-5.37,3.3-10.33,5.37-14.87l3.3-9.91c6.61-20.65,12.81-40.89,19-61.54,3.3-10.33,6.19-21.48,9.09-32.22l4.54-17.35,4.13-13.63,2.89-11.15c4.13-12.39,8.26-24.37,11.56-36.76l1.65-6.61c.83-4.54,2.07-9.5,3.3-14.46,1.65-4.54,2.89-9.5,4.96-14.46,2.07-4.13,6.61-7.02,11.56-7.85h7.85c8.26.42,17.35.42,26.02.42,9.09-.42,18.17-.42,24.78.41,1.65.41,3.72,0,5.78,0h.83c2.07,0,4.96,0,7.02,1.24,2.48,1.24,4.13,3.3,4.54,6.2l.83,4.95c1.65,0,3.72,0,5.78,1.24,2.48,1.24,3.72,3.3,4.13,6.19l1.24,7.44c1.24,7.02,2.48,14.04,2.07,21.89-.41,6.61,0,13.63.41,20.65.41,4.13.83,8.67.83,13.22v16.11c0,4.96.41,10.33.83,15.7.41,6.61,1.24,13.63.83,20.24v6.19c0,8.26,0,16.11.83,23.96,1.65,12.39,1.65,25.2,1.65,37.59,0,8.26.41,16.52.83,24.37.83,11.56.41,22.72.41,33.87s.83,20.65,1.24,31.39c.41,10.74,1.24,21.07,2.07,31.39.83,4.13,1.24,7.85,2.48,11.15.41,2.48,1.65,3.72,3.72,5.37l1.24.83c2.07,1.24,3.72,3.3,4.13,5.78.41,4.54-2.07,7.44-6.61,10.33l-.41.41c-4.96,3.72-10.33,5.78-17.35,6.19l-9.91.83c-7.85.41-16.93-1.24-23.54-4.13ZM987.2,346.14c4.96-.41,9.5-1.65,13.63-4.96,2.07-1.24,4.54-2.48,4.54-4.54-.42-1.24-2.89-2.07-3.72-3.3-2.89-1.65-4.54-4.13-5.37-7.44-1.24-3.72-2.07-7.85-2.48-11.98-.83-10.74-1.65-21.07-2.07-31.8-.83-10.74-1.65-21.07-1.65-31.8.41-11.15.41-22.3-.41-33.46-1.24-20.24.41-41.3-2.07-61.54-1.24-10.33-.83-20.65-.83-30.98,0-11.98-1.65-23.96-1.65-35.93-.41-5.37,0-10.74-.41-16.11,0-11.57-1.65-22.72-.83-34.28,0-9.5-2.06-18.59-3.3-28.09-.41-1.65-1.24-2.48-2.89-2.89-3.72,0-7.02.41-10.74,0-11.15-1.65-32.63.41-49.98-.83h-7.44c-2.06.41-4.13,1.65-5.37,3.72-1.65,4.54-3.3,9.09-4.54,13.63-2.07,7.02-3.31,13.63-4.96,20.65-3.72,12.39-7.85,24.78-11.57,37.17l-7.43,24.37c-4.13,16.52-8.26,33.46-13.22,49.98l-19.41,61.55c-2.48,8.26-5.78,16.11-8.26,24.37-4.96,18.59-10.74,37.17-17.35,56.17l-11.98,35.11c-.83,1.65.83,3.72,2.48,4.13h4.54c14.46,1.24,24.78-1.65,43.78,0,.41,0,1.24,0,2.07-.41,1.65-.41,3.3-1.65,3.72-3.3l9.5-30.57c2.07-7.02,4.96-14.04,7.02-21.07.83-2.07,2.06-2.89,4.13-3.3,2.48,0,4.96-.41,7.44-.41,7.85,0,15.7.41,23.54.41,5.37.41,10.33.41,15.28.41,3.72,0,4.96,1.24,5.78,4.96.41,8.26,1.65,16.11,1.65,24.37.42,7.85,2.89,14.87,5.78,21.89,2.89,7.02,8.26,10.74,14.46,13.22,6.19,2.89,14.46,4.13,21.07,3.72l9.5-.83ZM896.74,227.59c-3.3-.42-4.95.41-4.13-2.48,5.37-15.28,8.67-33.05,13.63-47.92,3.3-7.85,5.78-15.69,6.19-23.54,4.54-12.39,4.96-25.2,9.91-37.59,2.07-4.13,2.89-9.09,4.13-13.63.41-2.07.83-4.54,2.48-6.19.41,0,.83-.41,1.24-.41,0,0,.41.41.83.41.42.83,1.24,3.3,1.24,4.13l.41,23.54c0,12.39-1.65,24.37-1.65,36.35l.83,46.68c0,3.72-.41,7.44-.41,10.74-.42,9.5-.42,9.09-9.91,9.5l-17.35.83-7.44-.41ZM922.35,220.98h2.89v-2.48l.41-5.78v-4.96l-.41-23.13-2.07,6.61c-2.48,7.02-4.54,14.87-7.02,23.13l-1.65,7.02,7.85-.41Z"/>
</svg>